<svg
   xmlns="http://www.w3.org/2000/svg"
   width="26"
   height="40">
  <path
     d="M 12.7,0.7 C 6.127,0.7 0.656,6.391 0.656,12.566 c 0,2.778 1.564,6.308 2.694,8.746 l 9.306,17.872 9.262,-17.872 c 1.13,-2.438 2.738,-5.791 2.738,-8.746 C 24.656,6.391 19.273,0.7 12.7,0.7 Z"
     id="path6"
     style="fill:#22313F;stroke:gray;stroke-width:1.10000002;stroke-linecap:round"/>
  <g
     id="g3356"
     style="fill:#ffffff;fill-rule:evenodd;stroke:#ffffff"
     transform="matrix(0.56610169,0,0,0.56610169,-7.4073969,-7.836574)">
    <path
       id="path3358"
       d="m 49.86336,36.03208 c 0,1.327241 -1.075006,2.402247 -2.402248,2.402247 l -9.608984,0 0,9.608984 c 0,1.327242 -1.075006,2.402248 -2.402247,2.402248 -1.327241,0 -2.402247,-1.075006 -2.402247,-2.402248 l 0,-9.608984 -9.608985,0 c -1.327241,0 -2.402246,-1.075006 -2.402246,-2.402247 0,-1.327241 1.075005,-2.402247 2.402246,-2.402247 l 9.608985,0 0,-9.608985 c 0,-1.32604 1.075006,-2.402246 2.402247,-2.402246 1.327241,0 2.402247,1.076206 2.402247,2.402246 l 0,9.608985 9.608984,0 c 1.327242,0 2.402248,1.075006 2.402248,2.402247 z"
       style="fill:#ffffff;stroke:gray;stroke-width:1.20112312" />
  </g>
</svg>
