<svg version="1" xmlns="http://www.w3.org/2000/svg" width="572" height="572" viewBox="0 0 429.000000 429.000000"><path d="M242.7 34.6c-.1.1-3.3.5-7.2.8-9.1.8-11.4 1.2-20.7 3.5-2 .5-3.9.6-4.2.3-.4-.3-.6.1-.6.8 0 .7-.3 1.1-.6.7-.9-.8-18.8 5.6-25.9 9.3-1.6.9-5.5 3-8.5 4.6-3 1.6-5.9 3.5-6.3 4.1-.4.7-1.3 1.3-1.9 1.3-1.1 0-9.5 6-14.7 10.4-5.8 5-20.6 20-20.4 20.8.2.4-.1.8-.5.8s-2.6 2.4-4.7 5.2c-2.2 2.9-4.3 5.4-4.7 5.6-.5.2-.8.8-.8 1.3 0 .9-4.9 8.9-6.1 9.9-.3.3-1.2 2-2 3.7-.8 1.8-1.7 3.3-2.1 3.3-.5 0-.7.3-.6.7.1.5-1.3 3.7-3 7.4-4.2 8.8-5.5 12.1-5.7 14.1-.1 1-.7 2.3-1.2 3-.9 1.2-3.1 7.9-3.9 12.1-.2 1-.8 2.5-1.5 3.3-.6.8-.9 1.4-.6 1.4.3 0-1.9 4.5-4.9 10.1-3 5.5-5.4 10.5-5.4 11s-.4.9-.8.9c-.9 0-2.9 3.7-3 5.4 0 .5-.4 1.2-.9 1.5-.4.3-3 3.9-5.8 8-2.7 4-5.7 8.4-6.5 9.6-10.1 14.8-31.6 34.2-47 42.6-2.5 1.3-4.8 2.8-5.1 3.2-.3.5-.8.8-1 .6-.7-.4-8.9 4.1-8.9 4.9 0 2.5 33.9 32.2 36.8 32.2.6 0 1.2.4 1.4.8.4 1.2 9.5 7.2 10.7 7.2.6 0 1.1.4 1.1 1 0 .5.5 1 1.1 1 .6 0 2.4.9 4 2.1 4.6 3.2 33.7 17.8 34.3 17.2.3-.4.6-.1.6.5 0 .7.3 1.1.8 1 .7-.1 4.1 1.2 9.7 3.7 3.5 1.6 19.5 7.8 21 8.1 1.6.4 10.8 3.6 13.1 4.6 1.2.6 3.3 1.1 4.8 1.1 1.4.1 2.6.5 2.6.8 0 .4 1.2.9 2.8 1.2 1.5.3 5.7 1.4 9.4 2.4 3.7 1.1 7 1.8 7.3 1.5.3-.3.5.1.5.8 0 .7.3 1.1.6.8.3-.3 3.1 0 6.3.8 3.2.7 6.9 1.5 8.2 1.8 1.3.3 4.7 1 7.4 1.6 2.8.6 6.7 1.3 8.9 1.5 2.1.3 4.3.8 4.8 1.1.5.3 3 .8 5.6 1 5.1.5 9.7 1.1 9.7 1.4 0 .1 1.8.3 4 .5s6.5.7 9.5 1c9.9 1.1 13.4 1.4 24.5 2 9.2.5 26.7.8 28.5.5.3 0 5.9-.3 12.5-.6 17.7-.9 17.5-.9 17.5-1.4 0-.3 1.7-.5 3.8-.6 4.8-.1 13.3-1.3 17.2-2.4 1.6-.5 3-.7 3-.4 0 .3.9 0 2-.6 1.4-.7 2-.7 2 0s.6.7 1.8 0c.9-.5 6-2.1 11.2-3.5 18.4-4.9 19.8-5.4 36.7-13.7 5.7-2.8 11.4-6.1 12.8-7.4 1.4-1.3 2.9-2.4 3.2-2.4 1.1 0 9.8-7.6 10.1-8.8.1-.6-.8-1.3-2-1.3-23.5-1.2-44.3-2.5-44.3-2.9 0-.1-2.2-.3-5-.5-10.6-.8-21.9-2.3-30.2-4.1-1.6-.3-3.9-.7-5.3-.9-1.4-.2-2.5-.4-2.5-.5 0-.2-3.4-1-6-1.4-1.1-.2-2-.4-2-.5 0-.2-.7-.4-1.5-.6-.8-.2-4-1.1-7-2-3-.9-6.5-1.9-7.7-2.2-1.3-.3-2.3-.8-2.3-1.2 0-.4-.8-.7-1.9-.8-3.1-.3-17.1-5.3-25.1-9.1-11.1-5.2-17.4-9.7-25.7-18.2-4.7-4.8-11.3-14.1-11.3-15.9 0-.6-.4-1.1-.8-1.1-.5 0-1.5-1.8-2.2-4-.7-2.2-1.7-4-2.2-4-.4 0-.7-.3-.7-.8.1-.4 0-1-.1-1.5-.1-.4-.4-1.2-.5-1.7-.1-.6-.4-1.2-.5-1.5-.1-.3-.3-.8-.5-1.3-.1-.4-.4-1.4-.7-2.2-.8-1.9-2.8-9.8-3.3-12.5-.2-1.1-.6-3.4-1-5-.4-1.7-.9-8.3-1-14.8-.5-16.8 2.1-26.3 11.4-42.4 1-1.8 2.1-3 2.5-2.6.3.3.6.1.6-.5 0-1.1 7.9-9.6 9.7-10.3.4-.2 3.3-2 6.3-3.9s5.7-3.5 6-3.5c.3-.1 2-.9 3.8-1.8 1.7-1 3.2-1.5 3.2-1.2 0 .3.8.1 1.8-.4 4-2.2 19.6-3.2 26.7-1.8 12 2.4 22.9 8.3 32.5 17.6 9.2 9 14.1 16.4 17.2 25.8 1.2 3.7 2.6 7.1 3.1 7.4 2.1 1.4 4.7-.6 6.6-5.1 1.2-2.7 2.6-5.2 3.1-5.5.6-.3 1-1.7 1-3 0-2.2 1.5-6.9 4-13 4.6-10.9 6.8-30.9 4.7-42-1.3-6.7-1.6-8.2-3.1-12.8-1.7-5.2-7.6-17-8.8-17.5-.5-.2-.8-1-.8-1.8s-.4-1.4-1-1.4c-.5 0-1-.6-1-1.3 0-1.7-16.2-18.4-21.5-22.2-2.2-1.6-4.6-3.5-5.3-4.2-.7-.7-2-1.3-2.8-1.3-.8 0-1.4-.5-1.4-1 0-.6-.7-1-1.5-1s-1.5-.5-1.5-1c0-.6-.7-1-1.5-1s-1.5-.3-1.5-.8c0-.4-1.5-1.3-3.2-2.1-1.8-.8-3.5-1.7-3.8-2-.4-.6-5.7-3.3-7-3.6-.3-.1-2.3-.9-4.5-1.9-2.2-1-4.4-1.9-5-2-5.3-1.4-7.2-2-8.4-3-.8-.6-1.6-1-1.8-.8-.3.3-2 0-8.3-1.4-1.4-.3-3.8-.7-5.5-.9-1.6-.2-3-.4-3-.5 0-.6-24.2-2-24.8-1.4z"/></svg>